<svg width="2048" height="1024" viewBox="0 0 2048 1024" fill="none" xmlns="http://www.w3.org/2000/svg">
<g filter="url(#filter0_i_2874_2)">
<path d="M427.096 598.048C421.805 598.048 417.709 596.597 414.808 593.696C412.077 590.624 410.712 586.443 410.712 581.152V432.16C410.712 426.699 412.163 422.603 415.064 419.872C417.965 416.971 422.061 415.52 427.352 415.52H489.048C508.845 415.52 524.12 420.299 534.872 429.856C545.624 439.243 551 452.469 551 469.536C551 480.629 548.525 490.187 543.576 498.208C538.797 506.229 531.8 512.373 522.584 516.64C513.368 520.907 502.189 523.04 489.048 523.04L491.352 519.2H499.8C506.797 519.2 512.856 520.907 517.976 524.32C523.267 527.733 527.875 533.109 531.8 540.448L551 576.032C553.048 579.616 553.987 583.115 553.816 586.528C553.645 589.941 552.365 592.757 549.976 594.976C547.587 597.024 544.088 598.048 539.48 598.048C534.872 598.048 531.117 597.109 528.216 595.232C525.315 593.184 522.755 590.112 520.536 586.016L494.68 538.4C491.608 532.597 487.939 528.757 483.672 526.88C479.576 524.832 474.285 523.808 467.8 523.808H443.48V581.152C443.48 586.443 442.115 590.624 439.384 593.696C436.653 596.597 432.557 598.048 427.096 598.048ZM443.48 499.488H483.416C495.192 499.488 504.067 497.099 510.04 492.32C516.184 487.371 519.256 480.032 519.256 470.304C519.256 460.747 516.184 453.579 510.04 448.8C504.067 443.851 495.192 441.376 483.416 441.376H443.48V499.488ZM603.62 596C597.988 596 593.636 594.549 590.564 591.648C587.663 588.576 586.212 584.224 586.212 578.592V432.928C586.212 427.296 587.663 423.029 590.564 420.128C593.636 417.056 597.988 415.52 603.62 415.52H695.012C699.279 415.52 702.521 416.629 704.74 418.848C707.129 421.067 708.324 424.224 708.324 428.32C708.324 432.587 707.129 435.915 704.74 438.304C702.521 440.523 699.279 441.632 695.012 441.632H617.7V491.296H689.38C693.817 491.296 697.145 492.405 699.364 494.624C701.583 496.843 702.692 500.085 702.692 504.352C702.692 508.619 701.583 511.861 699.364 514.08C697.145 516.299 693.817 517.408 689.38 517.408H617.7V569.888H695.012C699.279 569.888 702.521 570.997 704.74 573.216C707.129 575.435 708.324 578.677 708.324 582.944C708.324 587.211 707.129 590.453 704.74 592.672C702.521 594.891 699.279 596 695.012 596H603.62ZM754.322 598.048C749.373 598.048 745.533 596.683 742.802 593.952C740.242 591.221 738.962 587.296 738.962 582.176V429.856C738.962 424.565 740.242 420.555 742.802 417.824C745.533 414.923 749.031 413.472 753.298 413.472C757.223 413.472 760.125 414.24 762.002 415.776C764.05 417.141 766.439 419.531 769.17 422.944L867.218 550.176H860.562V429.088C860.562 424.139 861.842 420.299 864.402 417.568C867.133 414.837 870.973 413.472 875.922 413.472C880.871 413.472 884.626 414.837 887.186 417.568C889.746 420.299 891.026 424.139 891.026 429.088V582.688C891.026 587.467 889.831 591.221 887.442 593.952C885.053 596.683 881.81 598.048 877.714 598.048C873.789 598.048 870.631 597.28 868.242 595.744C866.023 594.208 863.549 591.733 860.818 588.32L763.026 461.088H769.426V582.176C769.426 587.296 768.146 591.221 765.586 593.952C763.026 596.683 759.271 598.048 754.322 598.048ZM947.87 596C942.238 596 937.886 594.549 934.814 591.648C931.913 588.576 930.462 584.224 930.462 578.592V432.928C930.462 427.296 931.913 423.029 934.814 420.128C937.886 417.056 942.238 415.52 947.87 415.52H997.534C1027.74 415.52 1051.04 423.285 1067.42 438.816C1083.98 454.347 1092.25 476.619 1092.25 505.632C1092.25 520.139 1090.12 533.024 1085.85 544.288C1081.76 555.381 1075.61 564.768 1067.42 572.448C1059.4 580.128 1049.5 586.016 1037.73 590.112C1026.12 594.037 1012.72 596 997.534 596H947.87ZM963.23 568.864H995.486C1006.07 568.864 1015.2 567.584 1022.88 565.024C1030.73 562.293 1037.21 558.368 1042.33 553.248C1047.62 547.957 1051.55 541.387 1054.11 533.536C1056.67 525.515 1057.95 516.213 1057.95 505.632C1057.95 484.469 1052.74 468.683 1042.33 458.272C1031.92 447.861 1016.31 442.656 995.486 442.656H963.23V568.864ZM1142.87 596C1137.24 596 1132.89 594.549 1129.81 591.648C1126.91 588.576 1125.46 584.224 1125.46 578.592V432.928C1125.46 427.296 1126.91 423.029 1129.81 420.128C1132.89 417.056 1137.24 415.52 1142.87 415.52H1234.26C1238.53 415.52 1241.77 416.629 1243.99 418.848C1246.38 421.067 1247.57 424.224 1247.57 428.32C1247.57 432.587 1246.38 435.915 1243.99 438.304C1241.77 440.523 1238.53 441.632 1234.26 441.632H1156.95V491.296H1228.63C1233.07 491.296 1236.4 492.405 1238.61 494.624C1240.83 496.843 1241.94 500.085 1241.94 504.352C1241.94 508.619 1240.83 511.861 1238.61 514.08C1236.4 516.299 1233.07 517.408 1228.63 517.408H1156.95V569.888H1234.26C1238.53 569.888 1241.77 570.997 1243.99 573.216C1246.38 575.435 1247.57 578.677 1247.57 582.944C1247.57 587.211 1246.38 590.453 1243.99 592.672C1241.77 594.891 1238.53 596 1234.26 596H1142.87ZM1294.6 598.048C1289.31 598.048 1285.21 596.597 1282.31 593.696C1279.58 590.624 1278.21 586.443 1278.21 581.152V432.16C1278.21 426.699 1279.66 422.603 1282.56 419.872C1285.47 416.971 1289.56 415.52 1294.85 415.52H1356.55C1376.35 415.52 1391.62 420.299 1402.37 429.856C1413.12 439.243 1418.5 452.469 1418.5 469.536C1418.5 480.629 1416.03 490.187 1411.08 498.208C1406.3 506.229 1399.3 512.373 1390.08 516.64C1380.87 520.907 1369.69 523.04 1356.55 523.04L1358.85 519.2H1367.3C1374.3 519.2 1380.36 520.907 1385.48 524.32C1390.77 527.733 1395.37 533.109 1399.3 540.448L1418.5 576.032C1420.55 579.616 1421.49 583.115 1421.32 586.528C1421.15 589.941 1419.87 592.757 1417.48 594.976C1415.09 597.024 1411.59 598.048 1406.98 598.048C1402.37 598.048 1398.62 597.109 1395.72 595.232C1392.81 593.184 1390.25 590.112 1388.04 586.016L1362.18 538.4C1359.11 532.597 1355.44 528.757 1351.17 526.88C1347.08 524.832 1341.79 523.808 1335.3 523.808H1310.98V581.152C1310.98 586.443 1309.61 590.624 1306.88 593.696C1304.15 596.597 1300.06 598.048 1294.6 598.048ZM1310.98 499.488H1350.92C1362.69 499.488 1371.57 497.099 1377.54 492.32C1383.68 487.371 1386.76 480.032 1386.76 470.304C1386.76 460.747 1383.68 453.579 1377.54 448.8C1371.57 443.851 1362.69 441.376 1350.92 441.376H1310.98V499.488ZM1566.22 598.56C1558.88 598.56 1551.29 597.451 1543.44 595.232C1535.59 592.843 1528.25 589.344 1521.42 584.736C1518.69 583.029 1516.9 580.811 1516.04 578.08C1515.19 575.349 1515.02 572.704 1515.53 570.144C1516.21 567.413 1517.41 565.109 1519.12 563.232C1520.99 561.184 1523.3 559.989 1526.03 559.648C1528.76 559.136 1531.75 559.819 1534.99 561.696C1540.79 565.109 1546.25 567.499 1551.37 568.864C1556.49 570.229 1561.61 570.912 1566.73 570.912C1576.63 570.912 1584.99 568.608 1591.82 564C1598.65 559.392 1603.77 552.48 1607.18 543.264C1610.76 533.877 1612.56 522.357 1612.56 508.704V489.504H1615.63C1614.43 498.037 1611.62 505.461 1607.18 511.776C1602.74 518.091 1597.11 522.955 1590.28 526.368C1583.46 529.611 1575.86 531.232 1567.5 531.232C1557.26 531.232 1548.04 528.757 1539.85 523.808C1531.83 518.859 1525.52 512.032 1520.91 503.328C1516.3 494.453 1514 484.469 1514 473.376C1514 461.6 1516.47 451.189 1521.42 442.144C1526.54 433.099 1533.62 426.016 1542.67 420.896C1551.71 415.605 1562.04 412.96 1573.64 412.96C1588.66 412.96 1601.38 416.459 1611.79 423.456C1622.2 430.453 1630.13 440.693 1635.6 454.176C1641.06 467.488 1643.79 483.616 1643.79 502.56C1643.79 517.92 1642 531.573 1638.41 543.52C1635 555.296 1629.96 565.28 1623.31 573.472C1616.65 581.664 1608.46 587.893 1598.73 592.16C1589.17 596.427 1578.34 598.56 1566.22 598.56ZM1575.69 505.12C1581.84 505.12 1587.21 503.755 1591.82 501.024C1596.6 498.123 1600.27 494.197 1602.83 489.248C1605.39 484.128 1606.67 478.325 1606.67 471.84C1606.67 465.184 1605.39 459.381 1602.83 454.432C1600.27 449.483 1596.6 445.643 1591.82 442.912C1587.21 440.181 1581.84 438.816 1575.69 438.816C1569.55 438.816 1564.17 440.181 1559.56 442.912C1554.96 445.643 1551.29 449.483 1548.56 454.432C1546 459.381 1544.72 465.184 1544.72 471.84C1544.72 478.325 1546 484.128 1548.56 489.248C1551.29 494.197 1554.96 498.123 1559.56 501.024C1564.17 503.755 1569.55 505.12 1575.69 505.12Z" fill="#008080"/>
</g>
<defs>
<filter id="filter0_i_2874_2" x="410.712" y="412.96" width="1233.08" height="189.6" filterUnits="userSpaceOnUse" color-interpolation-filters="sRGB">
<feFlood flood-opacity="0" result="BackgroundImageFix"/>
<feBlend mode="normal" in="SourceGraphic" in2="BackgroundImageFix" result="shape"/>
<feColorMatrix in="SourceAlpha" type="matrix" values="0 0 0 0 0 0 0 0 0 0 0 0 0 0 0 0 0 0 127 0" result="hardAlpha"/>
<feOffset dy="4"/>
<feGaussianBlur stdDeviation="2"/>
<feComposite in2="hardAlpha" operator="arithmetic" k2="-1" k3="1"/>
<feColorMatrix type="matrix" values="0 0 0 0 0 0 0 0 0 0 0 0 0 0 0 0 0 0 0.25 0"/>
<feBlend mode="normal" in2="shape" result="effect1_innerShadow_2874_2"/>
</filter>
</defs>
</svg>
