<svg width="15369" height="1875" viewBox="0 0 15369 1875" fill="none" xmlns="http://www.w3.org/2000/svg">
<path d="M0.170468 1846V27.8181H614.517C756.563 27.8181 873.158 52.0842 964.304 100.616C1055.45 148.557 1122.92 214.549 1166.72 298.592C1210.52 382.636 1232.41 478.221 1232.41 585.347C1232.41 692.473 1210.52 787.465 1166.72 870.325C1122.92 953.185 1055.75 1018.29 965.192 1065.64C874.638 1112.39 758.93 1135.77 618.068 1135.77H120.909V936.909H610.966C708.03 936.909 786.155 922.705 845.341 894.295C905.118 865.886 948.324 825.64 974.957 773.557C1002.18 720.882 1015.8 658.145 1015.8 585.347C1015.8 512.548 1002.18 448.924 974.957 394.473C947.732 340.022 904.231 298 844.453 268.408C784.676 238.223 705.663 223.131 607.415 223.131H220.341V1846H0.170468ZM855.994 1029.24L1303.44 1846H1047.76L607.415 1029.24H855.994ZM2127.97 1874.41C1996.57 1874.41 1883.23 1845.41 1787.95 1787.41C1693.25 1728.81 1620.15 1647.14 1568.66 1542.38C1517.76 1437.03 1492.31 1314.51 1492.31 1174.84C1492.31 1035.16 1517.76 912.051 1568.66 805.517C1620.15 698.391 1691.77 614.939 1783.51 555.162C1875.84 494.793 1983.55 464.608 2106.66 464.608C2177.68 464.608 2247.82 476.445 2317.06 500.119C2386.31 523.793 2449.34 562.264 2506.16 615.531C2562.98 668.206 2608.26 738.045 2641.99 825.048C2675.73 912.051 2692.6 1019.18 2692.6 1146.43V1235.2H1641.46V1054.1H2479.53C2479.53 977.155 2464.14 908.5 2433.36 848.131C2403.18 787.761 2359.97 740.117 2303.75 705.197C2248.11 670.278 2182.42 652.818 2106.66 652.818C2023.21 652.818 1951 673.533 1890.04 714.963C1829.67 755.801 1783.21 809.068 1750.66 874.764C1718.11 940.46 1701.83 1010.89 1701.83 1086.06V1206.8C1701.83 1309.78 1719.59 1397.08 1755.1 1468.69C1791.2 1539.71 1841.21 1593.87 1905.13 1631.16C1969.05 1667.85 2043.33 1686.2 2127.97 1686.2C2183.01 1686.2 2232.73 1678.5 2277.11 1663.12C2322.1 1647.14 2360.86 1623.46 2393.41 1592.09C2425.97 1560.13 2451.12 1520.48 2468.88 1473.13L2671.29 1529.95C2649.98 1598.6 2614.18 1658.97 2563.87 1711.06C2513.56 1762.55 2451.42 1802.79 2377.43 1831.8C2303.45 1860.2 2220.3 1874.41 2127.97 1874.41ZM3220.83 1025.69V1846H3011.31V482.364H3213.73V695.432H3231.48C3263.44 626.185 3311.98 570.55 3377.08 528.528C3442.18 485.915 3526.23 464.608 3629.21 464.608C3721.54 464.608 3802.33 483.547 3871.57 521.426C3940.82 558.713 3994.68 615.531 4033.15 691.881C4071.62 767.638 4090.86 863.519 4090.86 979.523V1846H3881.34V993.727C3881.34 886.601 3853.52 803.15 3797.89 743.372C3742.25 683.003 3665.9 652.818 3568.84 652.818C3501.96 652.818 3442.18 667.319 3389.51 696.32C3337.42 725.321 3296.29 767.638 3266.11 823.273C3235.92 878.907 3220.83 946.379 3220.83 1025.69ZM4988.63 1874.41C4874.99 1874.41 4774.67 1845.7 4687.67 1788.29C4600.67 1730.29 4532.6 1648.62 4483.48 1543.27C4434.36 1437.32 4409.79 1312.15 4409.79 1167.73C4409.79 1024.5 4434.36 900.214 4483.48 794.864C4532.6 689.513 4600.96 608.133 4688.56 550.723C4776.15 493.313 4877.36 464.608 4992.18 464.608C5080.96 464.608 5151.09 479.404 5202.59 508.997C5254.67 537.998 5294.32 571.142 5321.55 608.429C5349.37 645.124 5370.97 675.309 5386.36 698.983H5404.11V27.8181H5613.63V1846H5411.21V1636.48H5386.36C5370.97 1661.34 5349.07 1692.71 5320.66 1730.59C5292.25 1767.87 5251.71 1801.31 5199.03 1830.91C5146.36 1859.91 5076.22 1874.41 4988.63 1874.41ZM5017.04 1686.2C5101.08 1686.2 5172.1 1664.3 5230.11 1620.5C5288.11 1576.11 5332.2 1514.86 5362.39 1436.73C5392.57 1358.01 5407.66 1267.16 5407.66 1164.18C5407.66 1062.38 5392.87 973.308 5363.27 896.959C5333.68 820.018 5289.88 760.24 5231.88 717.626C5173.88 674.421 5102.27 652.818 5017.04 652.818C4928.26 652.818 4854.28 675.605 4795.09 721.178C4736.5 766.159 4692.41 827.416 4662.81 904.949C4633.81 981.89 4619.31 1068.3 4619.31 1164.18C4619.31 1261.25 4634.11 1349.43 4663.7 1428.74C4693.88 1507.46 4738.27 1570.2 4796.87 1616.95C4856.05 1663.12 4929.44 1686.2 5017.04 1686.2ZM6598.18 1874.41C6466.79 1874.41 6353.45 1845.41 6258.16 1787.41C6163.46 1728.81 6090.37 1647.14 6038.88 1542.38C5987.98 1437.03 5962.53 1314.51 5962.53 1174.84C5962.53 1035.16 5987.98 912.051 6038.88 805.517C6090.37 698.391 6161.98 614.939 6253.72 555.162C6346.05 494.793 6453.77 464.608 6576.88 464.608C6647.9 464.608 6718.03 476.445 6787.28 500.119C6856.53 523.793 6919.56 562.264 6976.38 615.531C7033.2 668.206 7078.47 738.045 7112.21 825.048C7145.94 912.051 7162.81 1019.18 7162.81 1146.43V1235.2H6111.68V1054.1H6949.74C6949.74 977.155 6934.36 908.5 6903.58 848.131C6873.39 787.761 6830.19 740.117 6773.96 705.197C6718.33 670.278 6652.63 652.818 6576.88 652.818C6493.42 652.818 6421.22 673.533 6360.26 714.963C6299.89 755.801 6253.43 809.068 6220.87 874.764C6188.32 940.46 6172.05 1010.89 6172.05 1086.06V1206.8C6172.05 1309.78 6189.8 1397.08 6225.31 1468.69C6261.42 1539.71 6311.43 1593.87 6375.35 1631.16C6439.27 1667.85 6513.55 1686.2 6598.18 1686.2C6653.22 1686.2 6702.94 1678.5 6747.33 1663.12C6792.31 1647.14 6831.08 1623.46 6863.63 1592.09C6896.18 1560.13 6921.34 1520.48 6939.09 1473.13L7141.51 1529.95C7120.2 1598.6 7084.39 1658.97 7034.08 1711.06C6983.78 1762.55 6921.63 1802.79 6847.65 1831.8C6773.67 1860.2 6690.51 1874.41 6598.18 1874.41ZM7481.53 1846V482.364H7683.94V688.33H7698.15C7723 620.858 7767.99 566.111 7833.09 524.089C7898.19 482.068 7971.58 461.057 8053.26 461.057C8068.65 461.057 8087.88 461.353 8110.97 461.945C8134.05 462.536 8151.51 463.424 8163.35 464.608V677.676C8156.24 675.901 8139.97 673.237 8114.52 669.686C8089.66 665.543 8063.32 663.472 8035.5 663.472C7969.22 663.472 7910.03 677.38 7857.95 705.197C7806.46 732.423 7765.62 770.302 7735.43 818.834C7705.84 866.774 7691.04 921.521 7691.04 983.074V1846H7481.53ZM8986.99 2.96016C9061.56 3.55203 9136.13 17.7566 9210.71 45.5738C9285.28 73.391 9353.35 119.556 9414.9 184.068C9476.45 247.989 9525.87 335.287 9563.16 445.964C9600.45 556.642 9619.09 695.432 9619.09 862.335C9619.09 1023.91 9603.7 1167.44 9572.92 1292.91C9542.74 1417.79 9498.94 1523.14 9441.53 1608.96C9384.71 1694.78 9315.47 1759.88 9233.79 1804.27C9152.71 1848.66 9060.97 1870.86 8958.58 1870.86C8856.78 1870.86 8765.93 1850.73 8686.03 1810.49C8606.72 1769.65 8541.62 1713.13 8490.72 1640.92C8440.41 1568.12 8408.15 1483.78 8393.95 1387.9H8610.57C8630.1 1471.36 8668.86 1540.31 8726.87 1594.76C8785.46 1648.62 8862.7 1675.55 8958.58 1675.55C9098.85 1675.55 9209.52 1614.29 9290.61 1491.77C9372.29 1369.26 9413.12 1196.14 9413.12 972.42H9398.92C9365.77 1022.14 9326.42 1065.05 9280.84 1101.15C9235.27 1137.25 9184.67 1165.07 9129.03 1184.6C9073.4 1204.13 9014.21 1213.9 8951.48 1213.9C8847.31 1213.9 8751.72 1188.15 8664.72 1136.66C8578.31 1084.58 8509.06 1013.26 8456.98 922.705C8405.49 831.559 8379.74 727.392 8379.74 610.205C8379.74 498.936 8404.6 397.136 8454.32 304.807C8504.62 211.885 8575.06 137.903 8665.61 82.8608C8756.75 27.8182 8863.88 1.18464 8986.99 2.96016ZM8986.99 198.273C8912.41 198.273 8845.24 216.916 8785.46 254.203C8726.27 290.898 8679.22 340.614 8644.3 403.351C8609.97 465.496 8592.81 534.447 8592.81 610.205C8592.81 685.962 8609.38 754.913 8642.53 817.058C8676.26 878.611 8722.13 927.735 8780.13 964.43C8838.73 1000.53 8905.31 1018.59 8979.88 1018.59C9036.11 1018.59 9088.49 1007.64 9137.02 985.737C9185.55 963.247 9227.87 932.766 9263.98 894.295C9300.67 855.233 9329.38 811.14 9350.09 762.016C9370.81 712.3 9381.16 660.512 9381.16 606.653C9381.16 535.631 9364 469.047 9329.67 406.902C9295.94 344.757 9249.18 294.449 9189.4 255.979C9130.22 217.508 9062.74 198.273 8986.99 198.273ZM12237.4 936.909C12237.4 1128.67 12202.8 1294.39 12133.5 1434.07C12064.3 1573.75 11969.3 1681.46 11848.5 1757.22C11727.8 1832.98 11589.9 1870.86 11434.8 1870.86C11279.8 1870.86 11141.9 1832.98 11021.1 1757.22C10900.4 1681.46 10805.4 1573.75 10736.1 1434.07C10666.9 1294.39 10632.3 1128.67 10632.3 936.909C10632.3 745.148 10666.9 579.428 10736.1 439.75C10805.4 300.072 10900.4 192.354 11021.1 116.597C11141.9 40.839 11279.8 2.96016 11434.8 2.96016C11589.9 2.96016 11727.8 40.839 11848.5 116.597C11969.3 192.354 12064.3 300.072 12133.5 439.75C12202.8 579.428 12237.4 745.148 12237.4 936.909ZM12024.3 936.909C12024.3 779.475 11998 646.604 11945.3 538.294C11893.2 429.984 11822.5 348.012 11733.1 292.378C11644.3 236.743 11544.9 208.926 11434.8 208.926C11324.7 208.926 11225 236.743 11135.6 292.378C11046.9 348.012 10976.1 429.984 10923.5 538.294C10871.4 646.604 10845.3 779.475 10845.3 936.909C10845.3 1094.34 10871.4 1227.21 10923.5 1335.52C10976.1 1443.83 11046.9 1525.81 11135.6 1581.44C11225 1637.07 11324.7 1664.89 11434.8 1664.89C11544.9 1664.89 11644.3 1637.07 11733.1 1581.44C11822.5 1525.81 11893.2 1443.83 11945.3 1335.52C11998 1227.21 12024.3 1094.34 12024.3 936.909ZM12432.5 223.131V27.8181H13796.1V223.131H13224.4V1846H13004.2V223.131H12432.5ZM14135.9 1846V27.8181H14750.3C14892.9 27.8181 15009.5 53.5639 15100 105.055C15191.2 155.955 15258.7 224.906 15302.5 311.909C15346.3 398.912 15368.2 495.976 15368.2 603.102C15368.2 710.228 15346.3 807.589 15302.5 895.183C15259.3 982.778 15192.4 1052.62 15101.8 1104.7C15011.3 1156.19 14895.3 1181.94 14753.8 1181.94H14313.5V986.625H14746.7C14844.4 986.625 14922.8 969.757 14982 936.021C15041.2 902.285 15084.1 856.713 15110.7 799.303C15137.9 741.301 15151.5 675.901 15151.5 603.102C15151.5 530.304 15137.9 465.2 15110.7 407.79C15084.1 350.38 15040.9 305.399 14981.1 272.847C14921.3 239.703 14842 223.131 14743.2 223.131H14356.1V1846H14135.9Z" fill="#008080"/>
</svg>
